<?xml version="1.0" encoding="utf-8"?>
<!-- Generator: Adobe Illustrator 26.0.1, SVG Export Plug-In . SVG Version: 6.00 Build 0)  -->
<svg version="1.1" id="Layer_1" xmlns="http://www.w3.org/2000/svg" xmlns:xlink="http://www.w3.org/1999/xlink" x="0px" y="0px"
	 viewBox="0 0 443.7 399" style="enable-background:new 0 0 443.7 399;" xml:space="preserve">
<g>
	<g>
		<path d="M312.4,319.7c-25.4,21.1-57.6,32.7-90.6,32.7c-31.9,0-62-10.4-87.2-30l-1-0.8l-6.8,6.3l1.3,1
			c26.9,21.3,59.3,32.6,93.6,32.6c35.5,0,69.9-12.6,97.1-35.4l1.3-1.1l-6.8-6.3L312.4,319.7z"/>
		<path d="M79.9,210.5c0,36.8,14.1,71.8,39.7,98.4l1,1.1l-6.7,6.2l-1-1c-27.2-28.3-42.2-65.5-42.2-104.6
			c0-73.5,52.8-135,122.4-148.4v9.4C128.6,84.7,79.9,142,79.9,210.5"/>
		<path d="M373,210.5c0,37.5-13.9,73.5-39.2,101.4l-1,1.1l-6.7-6.2l1-1.1c23.7-26.2,36.7-60,36.7-95.2
			c0-68.5-48.8-125.8-113.4-139.1v-9.4C320.2,75.4,373,136.9,373,210.5"/>
		<path d="M232,37.4v209.1c0,18.9-5.2,37.8-9.9,51.4c-4.6-13.6-9.2-32.6-9.2-51.4V37.4h6.4h6.3H232z"/>
		<polygon points="235.9,37.4 235.9,278.4 221.7,317.1 208.4,279 208.4,37.4 204.9,40.2 204.9,279 221.7,326.8 239.4,278.4 
			239.4,40.1 		"/>
	</g>
</g>
</svg>
