<?xml version="1.0" encoding="utf-8"?>
<!-- Generator: Adobe Illustrator 26.0.1, SVG Export Plug-In . SVG Version: 6.00 Build 0)  -->
<svg version="1.1" id="Layer_1" xmlns="http://www.w3.org/2000/svg" xmlns:xlink="http://www.w3.org/1999/xlink" x="0px" y="0px"
	 viewBox="0 0 443.7 399" style="enable-background:new 0 0 443.7 399;" xml:space="preserve">
<style type="text/css">
	.st0{clip-path:url(#SVGID_00000023985820691487421610000002112873326927293611_);fill:#FFFFFF;}
	.st1{fill:none;}
</style>
<g>
	<defs>
		<rect id="SVGID_1_" width="443.7" height="399"/>
	</defs>
	<clipPath id="SVGID_00000054236611673610474320000011103573707396676536_">
		<use xlink:href="#SVGID_1_"  style="overflow:visible;"/>
	</clipPath>
	<path style="clip-path:url(#SVGID_00000054236611673610474320000011103573707396676536_);fill:#FFFFFF;" d="M300.1,254.3
		c-19.5,16.2-44.3,25.2-69.7,25.2c-24.5,0-47.7-8-67-23.1l-0.7-0.6l-5.2,4.9l1,0.8c20.7,16.4,45.6,25,72,25
		c27.3,0,53.8-9.7,74.7-27.2l1-0.8l-5.2-4.8L300.1,254.3z"/>
	<path style="clip-path:url(#SVGID_00000054236611673610474320000011103573707396676536_);fill:#FFFFFF;" d="M121.3,170.3
		c0,28.3,10.8,55.2,30.5,75.6l0.8,0.8l-5.2,4.8l-0.8-0.8c-20.9-21.8-32.4-50.4-32.4-80.5c0-56.5,40.6-103.8,94.2-114.1v7.2
		C158.7,73.7,121.3,117.7,121.3,170.3"/>
	<path style="clip-path:url(#SVGID_00000054236611673610474320000011103573707396676536_);fill:#FFFFFF;" d="M346.7,170.3
		c0,28.9-10.7,56.6-30.1,78l-0.8,0.8l-5.2-4.8l0.8-0.8c18.2-20.1,28.2-46.1,28.2-73.2c0-52.7-37.5-96.8-87.2-106.9v-7.2
		C306,66.5,346.7,113.8,346.7,170.3"/>
	<path style="clip-path:url(#SVGID_00000054236611673610474320000011103573707396676536_);fill:#FFFFFF;" d="M57.9,360.6h5.7v-7.5
		l-5.7,0.6V360.6z M57.9,304.5v46l5.7-0.6v-45.3H57.9z"/>
	<path style="clip-path:url(#SVGID_00000054236611673610474320000011103573707396676536_);fill:#FFFFFF;" d="M100.6,348.9l-1.8,5.2
		l-1.7-4.8l-5.9,0.7l3.7,10.7h7.6l4.3-12.5L100.6,348.9z M81.6,304.5l-6.1,0l14.7,42.3l5.9-0.7L81.6,304.5z M116,304.5l-14.2,41
		l6.3-0.7h0l14-40.3L116,304.5z"/>
	<path style="clip-path:url(#SVGID_00000054236611673610474320000011103573707396676536_);fill:#FFFFFF;" d="M138.5,344.6l-5.7,0.6
		v15.4h37.7v-5.5h-32V344.6z M132.9,304.5v37.5l5.7-0.6v-8.2l26.9,0.1v-5.5h-26.9v-17.8h32v-5.5H132.9z"/>
	<path style="clip-path:url(#SVGID_00000054236611673610474320000011103573707396676536_);fill:#FFFFFF;" d="M185,339.3v21.3h5.7
		v-22L185,339.3z M226.6,334.6V354L214.2,336l-5.8,0.7l16.5,24h7.4v-26.7L226.6,334.6z M192.5,304.5H185V336l5.7-0.6V311l15.6,22.6
		l5.8-0.7L192.5,304.5z M226.6,304.5v26.8l5.7-0.6v-26.2H226.6z"/>
	<path style="clip-path:url(#SVGID_00000054236611673610474320000011103573707396676536_);fill:#FFFFFF;" d="M244.1,304.5v5.5h23.5
		v16.7l5.7-0.6v-16h23.5v-5.5H244.1z M267.6,360.6h5.7v-31.4l-5.7,0.6V360.6z"/>
	<path style="clip-path:url(#SVGID_00000054236611673610474320000011103573707396676536_);fill:#FFFFFF;" d="M353.2,320.2l-5.8,0.7
		c1.3,3.1,2.1,7,2.1,11.7c0,15-7.8,23.5-20.7,23.5c-10.2,0-20.7-6.1-20.7-23.5c0-2.7,0.3-5.1,0.8-7.3l-5.9,0.7
		c-0.4,2.1-0.5,4.3-0.5,6.6c0,17.7,10.4,29.2,26.4,29.2c12.8,0,26.4-7.7,26.4-29.2C355.1,328,354.4,323.8,353.2,320.2 M328.7,309
		c6.5,0,13.1,2.4,17.1,8.7h0l6.1-0.7c-4.3-8.7-12.4-13.7-23.2-13.7c-7.3,0-13.9,2.6-18.6,7.4c-3.1,3.1-5.3,7.1-6.6,11.8l6.2-0.7
		C313.1,312.8,321,309,328.7,309"/>
	<path style="clip-path:url(#SVGID_00000054236611673610474320000011103573707396676536_);fill:#FFFFFF;" d="M403,314.5l-5.9,0.7
		c0.7,1.4,1,3,1,4.7h5.7C403.8,318,403.5,316.2,403,314.5 M385.6,303.3c-10.5,0-17,5.1-18.4,12l6.3-0.7c1.8-3.6,6.2-5.5,12.1-5.5
		c3.9,0,7,1.2,9.1,3.1l6.8-0.8C398.7,306.4,393.1,303.3,385.6,303.3 M372.7,318.4c0-0.1,0-0.3,0-0.4l-5.7,0.6
		c0.4,22.3,33.6,10.2,33.6,25.9c0,5.9-3.8,11.6-14.1,11.6c-9.6,0-15.3-6.2-15.3-12.2h-5.7c0,8.2,6.9,17.8,20.4,17.8
		c15.1,0,20.3-9.3,20.3-16.6C406.3,322.5,372.7,335,372.7,318.4"/>
	<path style="clip-path:url(#SVGID_00000054236611673610474320000011103573707396676536_);fill:#FFFFFF;" d="M238.2,37.2V198
		c0,14.5-4,29.1-7.6,39.5c-3.6-10.5-7.1-25.1-7.1-39.5V37.2h4.9h4.8H238.2z"/>
	<polygon style="clip-path:url(#SVGID_00000054236611673610474320000011103573707396676536_);fill:#FFFFFF;" points="241.2,37.2 
		241.2,222.6 230.4,252.3 220.1,223 220.1,37.2 217.4,39.4 217.4,223 230.4,259.8 243.9,222.6 243.9,39.3 	"/>
</g>
<rect class="st1" width="443.7" height="399"/>
</svg>
